<svg width="52" height="52" viewBox="0 0 52 52" fill="none" xmlns="http://www.w3.org/2000/svg">
<path d="M45.1426 14.6033C44.7092 14.885 44.0917 15.145 43.8317 15.4375C43.7342 15.535 43.6801 15.6433 43.7017 15.7517V16.8675L43.3767 17.9617L43.0517 19.045L42.6942 20.2367L41.9576 22.6742L41.2426 25.0792L40.7009 26.8883C40.7009 27.17 40.6901 27.4517 40.6684 27.7225C40.5926 28.7625 40.3759 29.7592 40.0292 30.6908C39.8234 31.265 39.5742 31.8175 39.2709 32.3375C39.1626 32.5433 39.0326 32.7492 38.9026 32.9442C38.4692 33.6267 37.9492 34.255 37.3751 34.8075C36.9309 35.2517 36.4434 35.6633 35.9126 36.01C35.9126 36.01 35.9126 36.01 35.9017 36.01C35.8151 36.0858 35.7176 36.1508 35.6092 36.205C35.2734 36.4325 34.9159 36.6275 34.5476 36.8008C34.2984 36.9308 34.0492 37.0392 33.7892 37.1367C33.7351 37.1692 33.6701 37.1908 33.6159 37.2125C32.9984 37.505 32.2834 37.7 31.5684 37.7975C31.5251 37.8083 31.4926 37.8083 31.4492 37.8192C31.0159 37.895 30.5934 37.96 30.1601 37.9925C29.9651 38.0142 29.7592 38.025 29.5642 38.025L28.7951 37.9817L25.0901 37.7867C25.0901 37.7758 25.0792 37.7867 25.0792 37.7867L23.2159 37.6892C23.0751 37.6892 22.9234 37.6892 22.7826 37.6783C22.1976 37.6567 21.6342 37.5917 21.0709 37.4725C21.0601 37.4725 21.0601 37.4725 21.0601 37.4725C20.0309 37.2775 19.0451 36.9308 18.1242 36.465C17.6151 36.205 17.1167 35.9125 16.6509 35.5767C16.4559 35.4358 16.2717 35.2842 16.0876 35.1217C15.5676 34.6883 15.1017 34.2225 14.6684 33.7458C14.6034 33.6808 14.5492 33.6158 14.4951 33.5508C14.4301 33.4858 14.3651 33.41 14.3109 33.345C13.8992 32.825 13.5526 32.2942 13.2709 31.7308C13.0109 31.2325 12.8051 30.7017 12.6426 30.1167C12.5776 29.9108 12.5234 29.7158 12.4801 29.4992C12.4692 29.4883 12.4584 29.4667 12.4584 29.445C12.3501 29.0008 12.2526 28.535 12.1984 28.0692C12.1334 27.7117 12.1009 27.3542 12.1009 26.9858C12.0792 26.845 12.0792 26.6933 12.0792 26.5525L14.1484 23.3567L16.1742 20.2367L17.0951 18.8175L17.9292 17.5392L18.2109 17.095V15.9792C18.2326 15.73 18.2434 15.47 18.2326 15.2317C18.2217 14.4733 18.0701 13.7367 17.8209 13.0325C17.5826 12.285 17.2467 11.5808 16.9001 10.9308C16.4884 10.1833 16.0551 9.51167 15.6976 8.905C15.1667 8.01667 14.7984 7.29083 14.8959 6.78167C15.6759 6.5975 16.4992 6.5 17.3334 6.5H34.6667C39.1951 6.5 43.0951 9.31667 44.7092 13.2817C44.8826 13.7042 45.0342 14.1483 45.1426 14.6033Z" fill="#304FFE"/>
<path d="M45.5 17.3333V17.6258L44.005 18.4925L43.0517 19.045L42.0009 19.6517L39.8992 20.8758L37.8409 22.0675L35.7392 23.2808L34.905 23.7683C34.905 24.2883 34.775 24.765 34.5367 25.1983C34.2009 25.8267 33.6375 26.3467 32.9225 26.7908C32.1967 27.235 31.3084 27.5925 30.3117 27.8525C30.3117 27.8525 30.3117 27.8417 30.3009 27.8525C26.4442 28.8492 21.1792 28.3942 18.6225 26.4875C17.9075 25.9567 17.4092 25.3067 17.1925 24.5592C17.1275 24.31 17.095 24.0392 17.095 23.7683V15.9792C17.1059 15.8167 16.9975 15.6542 16.8025 15.4917C16.2175 15.0258 14.8417 14.5817 13.3034 14.1375C12.1009 13.8017 10.8117 13.4658 9.72838 13.1408C8.87255 12.8808 8.14671 12.6208 7.71338 12.3717C7.90838 11.9925 8.13588 11.6133 8.37421 11.2558C9.89088 9.035 12.2092 7.39917 14.8959 6.78167C15.6759 6.5975 16.4992 6.5 17.3334 6.5H29.0334C34.8509 7.51833 40.2134 9.89083 44.7092 13.2817C44.8825 13.7042 45.0342 14.1483 45.1425 14.6033C45.3375 15.3183 45.4567 16.055 45.4892 16.8242C45.5 16.9867 45.5 17.16 45.5 17.3333Z" fill="#4928F4"/>
<path d="M45.5 17.3333V22.1108L45.2617 22.8474L44.4492 25.3716L43.6042 27.9716L43.16 29.3583L42.7484 30.6474L42.3475 31.8716L41.9575 33.0849L41.7517 33.7241L41.4809 34.5691C41.4809 35.3924 41.4592 36.1183 41.405 36.7358C41.3942 36.8008 41.3834 36.8658 41.3834 36.9308C41.3184 37.5049 41.2317 37.9924 41.0909 38.4041C41.08 38.4691 41.0584 38.5341 41.0367 38.5883C40.755 39.3683 40.3325 39.8666 39.7042 40.1916C39.5525 40.2783 39.3792 40.3433 39.195 40.4083C38.6209 40.6033 37.895 40.7008 37.0067 40.7549C36.3567 40.7983 35.6092 40.8091 34.7642 40.8091H34.0167L32.7275 40.7549L32.5 40.7441L30.1492 40.6466L27.7659 40.5491L19.9117 40.2241L17.875 40.1374H17.5934C16.7484 40.1266 16.0225 40.0724 15.3942 39.9858C14.4842 39.8449 13.78 39.6066 13.2492 39.2491C12.4909 38.7616 12.0467 38.0466 11.7867 37.0499C11.7217 36.8116 11.6675 36.5624 11.635 36.2916C11.5267 35.6633 11.4725 34.9374 11.44 34.1249C11.44 33.9624 11.44 33.7999 11.4292 33.6266C11.4184 33.6158 11.4292 33.6158 11.4292 33.6158V32.9874C11.4184 32.6733 11.4184 32.3483 11.4184 32.0124L11.4725 30.2683L11.505 29.0224L11.5484 27.5708V27.3649L11.6242 24.6999L11.7 22.0349L11.7759 19.5324L11.8409 17.0733L11.8625 16.4233C11.8625 16.0874 10.725 15.8924 9.45754 15.7299C8.45004 15.5999 7.34504 15.4808 6.6842 15.3291C6.73837 15.0799 6.79254 14.8308 6.85754 14.5924C7.05254 13.8124 7.34504 13.0758 7.71337 12.3716C7.90837 11.9924 8.13587 11.6133 8.3742 11.2558C10.7142 10.2266 13.1517 9.42494 15.6975 8.90494C17.9292 8.43911 20.2584 8.18994 22.6634 8.18994C30.6367 8.18994 38.0034 10.8874 43.8317 15.4374C44.395 15.8708 44.9475 16.3366 45.4892 16.8241C45.5 16.9866 45.5 17.1599 45.5 17.3333Z" fill="#6200EA"/>
<path d="M45.5 19.9009V24.8192L44.9042 25.9676L43.7667 28.1884L43.16 29.3584L42.6075 30.4309L42.3692 30.8967C42.3692 31.2326 42.3692 31.5576 42.3475 31.8717C42.3475 32.3376 42.3258 32.7817 42.2933 33.1934C42.25 33.6809 42.185 34.1251 42.12 34.5367C41.9575 35.3926 41.73 36.1292 41.405 36.7359C41.3617 36.8117 41.3183 36.8876 41.275 36.9526C41.1558 37.1476 41.015 37.3317 40.8633 37.5051C40.6683 37.7434 40.4517 37.9492 40.2025 38.1226C39.8342 38.4042 39.4008 38.6317 38.9025 38.8051C38.285 39.0326 37.57 39.1842 36.725 39.2709C36.1725 39.3251 35.5658 39.3576 34.905 39.3576L34.45 39.3792L32.1967 39.5092H32.1858L29.7917 39.6501L27.3542 39.7909L23.9958 39.9859L19.9117 40.2242L19.3158 40.2567C18.7633 40.2567 18.2433 40.2242 17.745 40.1592C17.6908 40.1484 17.6475 40.1376 17.5933 40.1376C16.8567 40.0184 16.185 39.8234 15.5783 39.5526C14.8417 39.2276 14.2025 38.7942 13.6608 38.2742C13.1842 37.8084 12.7725 37.2776 12.4367 36.6817C12.3608 36.5409 12.285 36.4109 12.22 36.2592C11.895 35.6201 11.635 34.9051 11.44 34.1251C11.4075 33.9951 11.375 33.8542 11.3533 33.7134C11.2883 33.4642 11.2342 33.2042 11.2017 32.9334C11.0825 32.2401 11.0175 31.5034 10.985 30.7342V30.7234C10.9742 30.4092 10.9633 30.1059 10.9633 29.7809L10.4325 28.5134L10.3567 28.3184L10.2917 28.1559L9.47917 26.2167L9.34917 25.9026L8.56917 24.0284L7.7025 21.9376C7.7025 21.9376 7.7025 21.9376 7.69167 21.9376L6.81417 19.8251L6.5 19.0559V17.3334C6.5 16.6509 6.565 15.9792 6.68417 15.3292C6.73833 15.0801 6.7925 14.8309 6.8575 14.5926C7.77833 14.0617 8.7425 13.5742 9.72833 13.1409C11.9817 12.1334 14.3975 11.3859 16.9 10.9309C18.7633 10.5951 20.7025 10.4109 22.6633 10.4109C30.5825 10.4109 37.765 13.2817 43.3767 17.9617C43.5933 18.1351 43.7992 18.3084 44.005 18.4926C44.5142 18.9367 45.0125 19.4026 45.5 19.9009Z" fill="#673AB7"/>
<path d="M45.5 23.1291V28.6975L44.8825 29.9866L43.7125 32.4241L43.7017 32.4566C43.7017 32.9225 43.68 33.345 43.6475 33.7241C43.5392 34.97 43.2358 35.7608 42.7375 36.2483C42.38 36.6166 41.9358 36.8225 41.3833 36.9308C41.3508 36.9416 41.3075 36.9416 41.275 36.9525C41.1017 36.985 40.9175 37.0066 40.7225 37.0066C40.0508 37.0716 39.26 37.0283 38.35 36.9633C38.2525 36.9633 38.1442 36.9525 38.0358 36.9416C37.375 36.8983 36.6708 36.855 35.8908 36.8225C35.4683 36.8116 35.0242 36.8008 34.5692 36.8008H34.5475L33.4533 36.8875H33.4425L30.9833 37.0608L28.1775 37.2775L27.7658 37.31L24.4833 37.5483L22.7825 37.6783L21.1033 37.7975C20.8108 37.7975 20.5292 37.7975 20.2475 37.7866C20.2475 37.7866 20.2367 37.7758 20.2367 37.7866C19.0125 37.765 17.9183 37.6891 16.9433 37.505C16.0442 37.3533 15.2533 37.115 14.5817 36.7575C13.8883 36.4216 13.3142 35.945 12.8483 35.3383C12.4042 34.7425 12.0792 33.995 11.8733 33.0958C11.8733 33.085 11.8733 33.085 11.8733 33.085C11.7217 32.3591 11.635 31.5141 11.635 30.5608L11.4725 30.2683L10.5083 28.5458L10.3675 28.3075L10.2917 28.1558L9.28417 26.3683L8.78583 25.4691L8.1575 24.3533L7.07417 22.4141L6.5 21.3958V17.4091C7.45333 16.7808 8.43917 16.2283 9.4575 15.73C10.6925 15.1016 11.9708 14.5708 13.3033 14.1375C14.755 13.6608 16.2717 13.2816 17.8208 13.0325C19.3917 12.7725 21.0058 12.6425 22.6633 12.6425C30.03 12.6425 36.79 15.275 42.0008 19.6516C42.2392 19.8358 42.4667 20.0416 42.6942 20.2366C43.6042 21.0491 44.4708 21.9266 45.2617 22.8475C45.3483 22.945 45.435 23.0316 45.5 23.1291Z" fill="#8E24AA"/>
<path d="M45.5 26.7691V34.6016C45.24 34.4499 44.8825 34.2658 44.4383 34.0708C44.2 33.9516 43.9292 33.8324 43.6475 33.7241C43.2358 33.5399 42.7917 33.3666 42.2933 33.1933C42.185 33.1499 42.0767 33.1174 41.9575 33.0849C41.7625 33.0091 41.5567 32.9441 41.3508 32.8791C40.7117 32.6841 40.0075 32.5 39.2708 32.3375C38.9892 32.2833 38.6967 32.2291 38.4042 32.1858C37.4617 32.0233 36.4542 31.9258 35.4033 31.9149C35.3167 31.9041 35.2192 31.9041 35.1325 31.9041L32.3483 31.9258L28.5567 31.9474H28.5458L20.4317 32.0124C17.8533 32.0124 16.2717 32.6299 15.3183 32.8791C15.3183 32.8791 15.3075 32.8791 15.3075 32.8899C14.3 33.1499 13.9858 32.9874 13.8992 31.2216C13.8775 30.7341 13.8667 30.1058 13.8667 29.3366L13.26 28.8708L12.1983 28.0691L11.5483 27.5708L11.4183 27.4733L9.62 26.1083L9.34917 25.9024L8.78583 25.4691L7.74583 24.6891L6.5 23.7358V20.0524C6.60833 19.9658 6.70583 19.8899 6.81417 19.8249C8.385 18.7416 10.0642 17.8208 11.8408 17.0733C13.4225 16.4016 15.0908 15.8708 16.8025 15.4916C17.2683 15.3941 17.745 15.2966 18.2325 15.2316C19.6733 14.9824 21.1575 14.8633 22.6633 14.8633C29.1742 14.8633 35.1542 17.1274 39.8992 20.8758C40.6142 21.4391 41.3075 22.0349 41.9575 22.6741C42.8458 23.5191 43.68 24.4183 44.4492 25.3716C44.6008 25.5666 44.7525 25.7616 44.9042 25.9674C45.11 26.2274 45.305 26.4983 45.5 26.7691Z" fill="#C2185B"/>
<path d="M45.5 31.1133V34.6666C45.5 35.3708 45.435 36.0641 45.305 36.7358C45.11 37.7325 44.7742 38.6858 44.3192 39.5741C44.0808 39.6283 43.81 39.6283 43.5067 39.585C42.8242 39.4658 42.0225 39.1083 41.1558 38.6425C41.1125 38.6316 41.0692 38.61 41.0367 38.5883C40.7658 38.4475 40.4842 38.2958 40.2025 38.1225C39.6283 37.8083 39.0217 37.4616 38.415 37.1366C38.285 37.0716 38.155 37.0066 38.0358 36.9416C37.3425 36.5841 36.6275 36.2591 35.9125 36.01C35.9125 36.01 35.9125 36.01 35.9017 36.01C35.75 35.9558 35.5875 35.9016 35.425 35.8583C34.8075 35.685 34.1792 35.5766 33.5725 35.5766L32.3808 35.23L27.105 33.7025C27.105 33.7025 27.105 33.7025 27.0942 33.7025L23.855 32.76H23.8442L22.4358 32.3483C18.3625 32.3483 15.86 34.0816 14.6467 33.4208C14.17 33.1716 13.8883 32.5433 13.7908 31.3083C13.7583 30.9616 13.7475 30.5716 13.7475 30.1166L12.48 29.4991L12.4258 29.4775H12.415L11.505 29.0225L10.5083 28.5458L10.4325 28.5133L10.2483 28.4158L8.125 27.3866L6.5 26.5958V22.88C6.68417 22.7175 6.87917 22.5658 7.07417 22.4141C7.28 22.2516 7.48583 22.1 7.69167 21.9375C7.7025 21.9375 7.7025 21.9375 7.7025 21.9375C8.98083 21.0166 10.335 20.2041 11.7758 19.5325C13.455 18.7308 15.2425 18.1133 17.095 17.7125C17.3658 17.6475 17.6475 17.5825 17.9292 17.5391C19.4675 17.2466 21.0492 17.095 22.6633 17.095C28.3725 17.095 33.6158 18.9475 37.8408 22.0675C39.065 22.9775 40.2025 23.985 41.2425 25.0791C42.0983 25.9783 42.8892 26.9533 43.6042 27.9716C43.6583 28.0475 43.7125 28.1233 43.7667 28.1883C44.1675 28.7733 44.5358 29.3691 44.8825 29.9866C45.11 30.355 45.305 30.7341 45.5 31.1133Z" fill="#D81B60"/>
<path d="M45.305 36.7358C45.11 37.7325 44.7742 38.6858 44.3192 39.5741C44.1133 39.975 43.8858 40.3541 43.6367 40.7225C43.485 40.95 43.3225 41.1666 43.16 41.3725C42.77 41.2208 42.1958 41.0041 41.4917 40.7658C41.4917 40.7658 41.4917 40.7658 41.4917 40.755C40.9608 40.5708 40.3542 40.3758 39.7042 40.1916C39.52 40.1375 39.3358 40.0833 39.1408 40.0291C38.3717 39.8233 37.57 39.6391 36.79 39.5308C36.14 39.4225 35.5008 39.3575 34.905 39.3575L34.4067 39.2166H34.3958L31.7742 38.4583L30.16 37.9925L28.3617 37.4725H28.3508L27.7658 37.31L20.6917 35.2733L18.655 34.6883L17.1383 34.3308L14.6683 33.7458L14.365 33.67C14.365 33.67 14.365 33.67 14.3542 33.67L11.8733 33.0958C11.8733 33.085 11.8733 33.085 11.8733 33.085L11.4292 32.9875L11.2017 32.9333L9.3925 32.5108L9.18667 32.4566L7.64833 31.1891L6.5 30.225V25.805C6.90083 25.415 7.3125 25.0466 7.74583 24.6891C7.87583 24.57 8.01667 24.4616 8.1575 24.3533C8.2875 24.245 8.42833 24.1366 8.56917 24.0283C9.555 23.2808 10.595 22.6091 11.7 22.035C13.1083 21.2766 14.6033 20.67 16.1742 20.2366C16.4775 20.1391 16.7808 20.0525 17.095 19.9875C18.8717 19.5433 20.735 19.3158 22.6633 19.3158C27.5058 19.3158 32.0125 20.7783 35.7392 23.2808C37.5917 24.5266 39.26 26.0216 40.6683 27.7225C41.3833 28.5783 42.0333 29.4775 42.6075 30.4308C42.6617 30.5066 42.705 30.5716 42.7483 30.6475C43.095 31.2216 43.42 31.8175 43.7125 32.4241C43.9833 32.9658 44.2217 33.5075 44.4383 34.0708C44.785 34.9375 45.0667 35.8258 45.305 36.7358Z" fill="#F50057"/>
<path d="M43.6367 40.7225C43.485 40.95 43.3225 41.1667 43.16 41.3725C42.6833 41.9683 42.1633 42.51 41.5783 42.9867C41.0692 43.4092 40.5275 43.7883 39.9533 44.1133C39.7367 44.0592 39.52 43.9942 39.2925 43.9075C38.5775 43.6583 37.83 43.2467 37.1367 42.8133C36.0967 42.1525 35.1975 41.4375 34.7967 41.1125C34.645 40.9825 34.5692 40.9175 34.5692 40.9175L32.7275 40.755L32.5 40.7333L30.1167 40.5275L27.6467 40.3108L23.9958 39.9858L18.2108 39.4767L18.1892 39.4658L16.1525 38.48L14.0942 37.4833L12.4367 36.6817L12.0792 36.5083L11.635 36.2917L10.0967 35.5442L8.04917 34.5583L7.41 34.2442L6.5 33.9625V29.12C7.00917 28.5133 7.55083 27.9392 8.125 27.3867C8.49333 27.04 8.88333 26.6933 9.28417 26.3683C9.34917 26.3142 9.41417 26.26 9.47917 26.2167C9.5225 26.1625 9.57667 26.13 9.62 26.1083C10.2592 25.5883 10.9308 25.1225 11.6242 24.7C12.4258 24.1908 13.2708 23.7358 14.1483 23.3567C15.0908 22.9342 16.0767 22.5767 17.095 22.3058C18.8608 21.8075 20.735 21.5475 22.6633 21.5475C27.0833 21.5475 31.1675 22.8908 34.5367 25.1983C36.6925 26.6717 38.5558 28.535 40.0292 30.6908C40.5167 31.3842 40.95 32.1208 41.3508 32.8792C41.4917 33.1608 41.6325 33.4425 41.7517 33.7242C41.8817 33.995 42.0008 34.2658 42.12 34.5367C42.3475 35.1 42.5533 35.6633 42.7375 36.2483C43.0842 37.3317 43.3442 38.4367 43.5067 39.585C43.5608 39.9642 43.6042 40.3433 43.6367 40.7225Z" fill="#FF1744"/>
<path d="M41.5892 42.705C41.5892 42.7916 41.5892 42.8891 41.5783 42.9866C41.0692 43.4091 40.5275 43.7883 39.9533 44.1133C39.715 44.2433 39.4767 44.3733 39.2275 44.4816C38.9783 44.6008 38.7292 44.7091 38.4692 44.8066C38.1008 44.6116 37.6025 44.3733 37.0717 44.1458C36.3242 43.81 35.5117 43.5066 34.8833 43.4091C34.7317 43.3766 34.5908 43.3658 34.4608 43.3658L32.6842 43.1383H32.6625L30.4525 42.8458L28.2208 42.5533L27.1808 42.4233L18.9908 41.3616C18.46 41.3616 17.8967 41.3291 17.3117 41.2533C16.5967 41.1883 15.8492 41.08 15.1017 40.9283C14.365 40.7983 13.6175 40.625 12.9025 40.4408C12.155 40.2675 11.4183 40.0616 10.7358 39.8666C9.945 39.6283 9.20833 39.4008 8.59083 39.195C8.08167 39.0325 7.64833 38.8808 7.3125 38.7616C7.1175 38.2958 6.955 37.8083 6.83583 37.31C6.60833 36.465 6.5 35.5766 6.5 34.6666V32.8575C6.84667 32.2833 7.22583 31.72 7.64833 31.1891C8.4175 30.1708 9.295 29.2391 10.2483 28.4158C10.2808 28.3725 10.3242 28.34 10.3567 28.3183L10.3675 28.3075C10.7033 28.0041 11.05 27.7333 11.4183 27.4733C11.4617 27.43 11.505 27.3975 11.5483 27.365C11.7217 27.235 11.9058 27.105 12.1008 26.9858C13.65 25.935 15.3617 25.1116 17.1925 24.5591C18.9258 24.0391 20.7567 23.7683 22.6633 23.7683C26.4442 23.7683 29.9758 24.8841 32.9225 26.7908C35.1 28.1883 36.9742 30.03 38.4042 32.1858C38.5775 32.435 38.74 32.6841 38.9025 32.9441C39.65 34.2116 40.2675 35.5766 40.7225 37.0066C40.7767 37.1691 40.82 37.3316 40.8633 37.505C40.95 37.7975 41.0258 38.1008 41.0908 38.4041C41.1125 38.48 41.1342 38.5558 41.1558 38.6425C41.3075 39.325 41.4158 40.04 41.4917 40.755C41.4917 40.7658 41.4917 40.7658 41.4917 40.7658C41.5567 41.405 41.5892 42.055 41.5892 42.705Z" fill="#FF5722"/>
<path d="M39.3575 42.705C39.3575 43.0842 39.3358 43.4958 39.2925 43.9075C39.2708 44.1025 39.2491 44.2975 39.2275 44.4817C38.9783 44.6008 38.7291 44.7092 38.4691 44.8067C37.9816 44.9908 37.4833 45.1425 36.9741 45.2508C36.6275 45.3267 36.27 45.3917 35.9125 45.4242H35.9016C35.5658 45.2183 35.1758 44.9692 34.775 44.6875C34.0491 44.1783 33.2908 43.6042 32.6841 43.1383C32.6733 43.1275 32.6733 43.1275 32.6625 43.1167C32.0233 42.6292 31.5683 42.2608 31.5683 42.2608L30.42 42.3042L28.21 42.38L27.1808 42.4233L23.0425 42.575L19.5433 42.705C19.3158 42.7158 19.045 42.7158 18.7091 42.705H18.6983C18.2433 42.6942 17.7016 42.6617 17.1058 42.6075C16.4125 42.5533 15.6541 42.4883 14.885 42.4125C14.1375 42.3258 13.3791 42.2392 12.6533 42.1525C11.8516 42.0658 11.0933 41.9683 10.4433 41.8817C9.93415 41.8167 9.48998 41.7625 9.13248 41.7192C8.82915 41.3725 8.55832 41.015 8.29832 40.625C7.90832 40.04 7.57248 39.4225 7.31248 38.7617C7.11748 38.2958 6.95498 37.8083 6.83582 37.31C7.14998 36.3458 7.56165 35.4358 8.04915 34.5583C8.43915 33.8433 8.89415 33.1608 9.39248 32.5108C9.87998 31.8717 10.4108 31.2758 10.985 30.7342V30.7233C11.1475 30.5608 11.31 30.4092 11.4725 30.2683C11.7758 29.9867 12.09 29.7267 12.415 29.4775H12.4258C12.4366 29.4558 12.4475 29.4558 12.4583 29.445C12.7183 29.2392 12.9891 29.055 13.26 28.8708C14.8633 27.7767 16.6725 26.9642 18.6225 26.4875C19.9116 26.1733 21.2658 26 22.6633 26C25.415 26 28.015 26.6608 30.3008 27.8525H30.3116C32.2725 28.86 34.0058 30.2467 35.4033 31.915C36.1725 32.8033 36.8333 33.7783 37.375 34.8075C37.7541 35.5008 38.0791 36.2267 38.35 36.9633C38.3716 37.0283 38.3933 37.0825 38.415 37.1367C38.5991 37.6783 38.7616 38.2417 38.9025 38.805C39 39.2058 39.0758 39.6175 39.1408 40.0292C39.1625 40.1592 39.1841 40.2783 39.195 40.4083C39.3033 41.1558 39.3575 41.925 39.3575 42.705Z" fill="#FF6F00"/>
<path d="M37.1367 42.705V42.8134C37.1367 43.1817 37.1042 43.6475 37.0717 44.1459C37.0392 44.5142 37.0067 44.8934 36.9742 45.2509C36.6275 45.3267 36.27 45.3917 35.9125 45.4242H35.9017C35.49 45.4784 35.0892 45.5 34.6667 45.5H32.7708L32.3592 45.3809L30.225 44.7309L28.0583 44.0809L23.0425 42.575L20.8758 41.925C20.8758 41.925 19.9767 42.2825 18.7092 42.705H18.6983C18.2108 42.8675 17.68 43.0409 17.1167 43.2142C16.4125 43.42 15.665 43.6259 14.9283 43.7884C14.17 43.9617 13.4225 44.0917 12.7508 44.1459C12.545 44.1675 12.3392 44.1784 12.155 44.1784C11.5483 43.8425 10.9633 43.4417 10.4325 42.9975C9.96667 42.6075 9.53334 42.185 9.13251 41.7192C8.82917 41.3725 8.55834 41.015 8.29834 40.625C8.37417 40.1375 8.46084 39.6609 8.59084 39.195C8.91584 37.9059 9.42501 36.6709 10.0967 35.5442C10.465 34.905 10.8767 34.2875 11.3533 33.7134C11.3642 33.6809 11.3967 33.6484 11.4292 33.6267C11.4183 33.6159 11.4292 33.6159 11.4292 33.6159C11.57 33.4317 11.7217 33.2584 11.8733 33.0959C11.8733 33.085 11.8733 33.085 11.8733 33.085C12.3175 32.6084 12.7725 32.1534 13.2708 31.7309C13.4442 31.59 13.6067 31.4492 13.7908 31.3084C13.8233 31.2759 13.8558 31.2542 13.8992 31.2217C16.3367 29.3584 19.3808 28.2317 22.6633 28.2317C26.39 28.2317 29.7808 29.6292 32.3483 31.9259C33.5833 33.0417 34.6342 34.3742 35.425 35.8584C35.49 35.9667 35.555 36.0859 35.6092 36.205C35.7067 36.4 35.8042 36.6059 35.8908 36.8225C36.2483 37.6025 36.53 38.4259 36.725 39.2709C36.7467 39.3575 36.7683 39.4442 36.79 39.5309C36.8767 39.9317 36.9525 40.3434 37.0067 40.755C37.0933 41.3942 37.1367 42.0442 37.1367 42.705Z" fill="#FF9800"/>
<path d="M34.9051 42.705C34.9051 42.9217 34.8942 43.16 34.8834 43.4092C34.8617 43.81 34.8292 44.2433 34.7751 44.6875C34.7534 44.9583 34.7101 45.2292 34.6667 45.5H28.7301L27.5817 45.3159L23.0967 44.6008L22.4576 44.5034L20.9951 44.265C20.3559 44.265 18.9692 44.5467 17.5067 44.8175C16.7376 44.9583 15.9576 45.11 15.2534 45.2075C15.1667 45.2183 15.0801 45.2292 15.0042 45.24H14.9934C14.2351 45.0775 13.4984 44.8284 12.8051 44.5034C12.5884 44.4058 12.3717 44.2975 12.1551 44.1783C11.5484 43.8425 10.9634 43.4417 10.4326 42.9975C10.4217 42.8675 10.4109 42.7592 10.4109 42.705C10.4109 42.4233 10.4217 42.1525 10.4434 41.8817C10.4867 41.1883 10.5842 40.5167 10.7359 39.8667C10.9742 38.8808 11.3209 37.9275 11.7867 37.05C11.8734 36.8658 11.9709 36.6817 12.0792 36.5083C12.1226 36.4217 12.1767 36.3458 12.2201 36.2592C12.4151 35.945 12.6317 35.6417 12.8484 35.3383C13.3034 34.7425 13.8126 34.1792 14.3542 33.67C14.3651 33.67 14.3651 33.67 14.3651 33.67C14.4084 33.6267 14.4517 33.5833 14.4951 33.5508C14.5492 33.5075 14.5926 33.4533 14.6467 33.4208C14.8634 33.2258 15.0801 33.0525 15.3076 32.89C15.3076 32.8792 15.3184 32.8792 15.3184 32.8792C17.3659 31.3517 19.9009 30.4525 22.6634 30.4525C24.8084 30.4525 26.8017 30.9942 28.5459 31.9475H28.5567C30.0517 32.7708 31.3517 33.8867 32.3809 35.23C32.7817 35.75 33.1392 36.3025 33.4426 36.8875H33.4534C33.5076 36.9958 33.5617 37.1042 33.6159 37.2125C33.9409 37.8517 34.2009 38.5233 34.3959 39.2167H34.4067C34.4176 39.2708 34.4392 39.325 34.4501 39.3792C34.5801 39.845 34.6884 40.3217 34.7642 40.8092C34.7751 40.9067 34.7859 41.015 34.7967 41.1125C34.8726 41.6325 34.9051 42.1633 34.9051 42.705Z" fill="#FFC107"/>
<path d="M32.6841 42.5859C32.6841 42.7592 32.6841 42.9434 32.6625 43.1167V43.1275C32.6625 43.1384 32.6625 43.1384 32.6625 43.1384C32.6408 43.9184 32.5325 44.6875 32.3591 45.3809C32.3591 45.4242 32.3483 45.4567 32.3266 45.5H27.2675L23.0966 44.6009L22.5441 44.4817L22.4575 44.5034L17.8316 45.4567L17.6258 45.5H17.3333C16.64 45.5 15.9575 45.435 15.2966 45.305C15.1991 45.2834 15.1016 45.2617 15.0041 45.24H14.9933C14.235 45.0775 13.4983 44.8284 12.805 44.5034C12.7833 44.3842 12.7616 44.265 12.7508 44.1459C12.675 43.68 12.6425 43.1925 12.6425 42.705C12.6425 42.5209 12.6425 42.3367 12.6533 42.1525C12.6858 41.5675 12.7725 40.9934 12.9025 40.4409C12.9891 40.0292 13.1083 39.6284 13.2491 39.2492C13.3683 38.9134 13.5091 38.5884 13.6608 38.2742C13.7908 38.0034 13.9425 37.7434 14.0941 37.4834C14.2458 37.2342 14.4083 36.9959 14.5816 36.7575C15.015 36.1617 15.5241 35.6092 16.0875 35.1217C16.4125 34.84 16.77 34.5692 17.1383 34.3309C18.72 33.2909 20.6158 32.6842 22.6633 32.6842C23.0641 32.6842 23.4541 32.7059 23.8333 32.76H23.855C25.0141 32.89 26.0975 33.215 27.0941 33.7025C27.105 33.7025 27.105 33.7025 27.105 33.7025C28.6758 34.4717 30.0083 35.6309 30.9833 37.0609C31.1458 37.2992 31.3083 37.5592 31.4491 37.8192C31.5683 38.025 31.6766 38.2417 31.7741 38.4584C31.9258 38.7942 32.0666 39.1517 32.1858 39.5092H32.1966C32.3158 39.91 32.4241 40.3109 32.5 40.7334V40.7442C32.6191 41.34 32.6841 41.9575 32.6841 42.5859Z" fill="#FFD54F"/>
<path d="M30.4524 42.8133V42.8458C30.4524 43.485 30.3766 44.1133 30.2249 44.7308C30.1708 44.9908 30.0949 45.2508 29.9974 45.5H25.1441L22.6633 44.8175L20.1824 45.5H17.3333C16.6399 45.5 15.9574 45.435 15.2966 45.305C15.2749 45.2725 15.2641 45.24 15.2533 45.2075C15.1016 44.7416 14.9824 44.2758 14.9283 43.7883C14.8849 43.4741 14.8633 43.1491 14.8633 42.8133C14.8633 42.6833 14.8633 42.5425 14.8849 42.4125C14.8958 41.9033 14.9716 41.405 15.1016 40.9283C15.1666 40.6033 15.2641 40.2891 15.3941 39.9858C15.4374 39.8341 15.5024 39.6933 15.5783 39.5525C15.7408 39.1841 15.9358 38.8266 16.1524 38.48C16.3908 38.1333 16.6508 37.8083 16.9433 37.505C17.2899 37.115 17.6799 36.7575 18.1241 36.465C18.8824 35.9125 19.7491 35.5008 20.6916 35.2733C21.3199 35.1 21.9808 35.0133 22.6633 35.0133C24.8299 35.0133 26.7691 35.88 28.1774 37.2775C28.2316 37.3316 28.2966 37.3966 28.3508 37.4725H28.3616C28.5133 37.635 28.6541 37.7975 28.7949 37.9816C29.1958 38.4908 29.5316 39.0433 29.7916 39.65C29.9216 39.9316 30.0299 40.2241 30.1166 40.5275C30.1274 40.5708 30.1383 40.6033 30.1491 40.6466C30.3008 41.1775 30.3983 41.73 30.4199 42.3041C30.4416 42.4666 30.4524 42.64 30.4524 42.8133Z" fill="#FFE082"/>
<path d="M28.2316 42.8133C28.2316 43.2575 28.1775 43.68 28.0583 44.0808C27.95 44.5142 27.7875 44.9258 27.5816 45.3158C27.5491 45.3808 27.4733 45.5 27.4733 45.5H17.8533C17.8425 45.4892 17.8316 45.4675 17.8316 45.4567C17.7016 45.2508 17.5933 45.045 17.5066 44.8175C17.29 44.3192 17.16 43.7775 17.1166 43.2142C17.095 43.0842 17.095 42.9433 17.095 42.8133C17.095 42.7483 17.095 42.6725 17.1058 42.6075C17.1166 42.1308 17.1816 41.6758 17.3116 41.2533C17.42 40.8633 17.5608 40.5058 17.745 40.1592C17.745 40.1592 17.7558 40.1483 17.7558 40.1375C17.8858 39.91 18.0266 39.6825 18.1891 39.4658C18.72 38.7508 19.4241 38.1658 20.2366 37.7867C20.2475 37.7867 20.2475 37.7867 20.2475 37.7867C20.5075 37.6567 20.7783 37.5483 21.06 37.4725C21.06 37.4725 21.06 37.4725 21.0708 37.4725C21.5691 37.3208 22.1108 37.245 22.6633 37.245C23.3025 37.245 23.92 37.3425 24.4833 37.5483C24.6891 37.6025 24.8841 37.6892 25.0791 37.7867C25.0791 37.7867 25.0791 37.7867 25.09 37.7867C26.0216 38.2308 26.8125 38.9242 27.3541 39.7908C27.4625 39.9533 27.56 40.1267 27.6466 40.3108C27.69 40.3867 27.7333 40.4733 27.7658 40.5492C28.015 41.1125 28.1666 41.73 28.21 42.38C28.2208 42.4342 28.2208 42.4883 28.2208 42.5533C28.2316 42.64 28.2316 42.7267 28.2316 42.8133Z" fill="#FFECB3"/>
<path d="M32.5 11.9166H19.5C15.275 11.9166 11.9166 15.275 11.9166 19.5V32.5C11.9166 36.725 15.275 40.0833 19.5 40.0833H32.5C36.725 40.0833 40.0833 36.725 40.0833 32.5V19.5C40.0833 15.275 36.725 11.9166 32.5 11.9166Z" stroke="white" stroke-width="2" stroke-miterlimit="10" stroke-linecap="round" stroke-linejoin="round"/>
<path d="M33.5833 18.4167C34.1816 18.4167 34.6667 17.9316 34.6667 17.3333C34.6667 16.735 34.1816 16.25 33.5833 16.25C32.985 16.25 32.5 16.735 32.5 17.3333C32.5 17.9316 32.985 18.4167 33.5833 18.4167Z" fill="white"/>
<path d="M26 32.5C29.5899 32.5 32.5 29.5899 32.5 26C32.5 22.4101 29.5899 19.5 26 19.5C22.4101 19.5 19.5 22.4101 19.5 26C19.5 29.5899 22.4101 32.5 26 32.5Z" stroke="white" stroke-width="2" stroke-miterlimit="10" stroke-linecap="round" stroke-linejoin="round"/>
</svg>
