<svg width="117" height="106" viewBox="0 0 117 106" fill="none" xmlns="http://www.w3.org/2000/svg">
<rect x="0.5" y="0.5" width="116" height="105" rx="52.5" fill="#E5CFF7"/>
<path d="M50.6316 87.5652C46.8684 87.5652 43.6469 86.061 40.9671 83.0525C38.2873 80.0441 36.9474 76.4275 36.9474 72.2029C36.9474 67.9782 38.2873 64.3617 40.9671 61.3532C43.6469 58.3448 46.8684 56.8405 50.6316 56.8405C51.943 56.8405 53.1546 57.0166 54.2665 57.3686C55.3783 57.7207 56.4474 58.2488 57.4737 58.9529V18.4348H78V33.7971H64.3158V72.2029C64.3158 76.4275 62.9759 80.0441 60.2961 83.0525C57.6162 86.061 54.3947 87.5652 50.6316 87.5652Z" fill="#713ABE"/>
<rect x="0.5" y="0.5" width="116" height="105" rx="52.5" stroke="#9D76C1"/>
</svg>
