<svg width="52" height="52" viewBox="0 0 52 52" fill="none" xmlns="http://www.w3.org/2000/svg">
<path d="M26 5.41663C20.541 5.41663 15.3055 7.58522 11.4454 11.4453C7.58528 15.3055 5.41669 20.5409 5.41669 26C5.41669 31.459 7.58528 36.6945 11.4454 40.5546C15.3055 44.4147 20.541 46.5833 26 46.5833C31.4591 46.5833 36.6945 44.4147 40.5546 40.5546C44.4148 36.6945 46.5834 31.459 46.5834 26C46.5834 20.5409 44.4148 15.3055 40.5546 11.4453C36.6945 7.58522 31.4591 5.41663 26 5.41663Z" fill="#039BE5"/>
<path d="M28.7863 31.4557H34.1131L34.9494 26.0445H28.7853V23.087C28.7853 20.839 29.5198 18.8457 31.6225 18.8457H35.0014V14.1235C34.4078 14.0433 33.1522 13.8678 30.7797 13.8678C25.8256 13.8678 22.9212 16.484 22.9212 22.4445V26.0445H17.8284V31.4557H22.9212V46.3288C23.9298 46.4805 24.9513 46.5834 26 46.5834C26.9479 46.5834 27.8731 46.4967 28.7863 46.3732V31.4557Z" fill="white"/>
</svg>
