<svg width="24" height="24" viewBox="0 0 24 24" fill="none" xmlns="http://www.w3.org/2000/svg">
<path d="M16.6 24L10.3 17.7C9.8 18.1 9.225 18.4167 8.575 18.65C7.925 18.8833 7.23333 19 6.5 19C4.68333 19 3.14583 18.3708 1.8875 17.1125C0.629167 15.8542 0 14.3167 0 12.5C0 10.6833 0.629167 9.14583 1.8875 7.8875C3.14583 6.62917 4.68333 6 6.5 6C8.31667 6 9.85417 6.62917 11.1125 7.8875C12.3708 9.14583 13 10.6833 13 12.5C13 13.2333 12.8833 13.925 12.65 14.575C12.4167 15.225 12.1 15.8 11.7 16.3L18 22.6L16.6 24ZM6.5 17C7.75 17 8.8125 16.5625 9.6875 15.6875C10.5625 14.8125 11 13.75 11 12.5C11 11.25 10.5625 10.1875 9.6875 9.3125C8.8125 8.4375 7.75 8 6.5 8C5.25 8 4.1875 8.4375 3.3125 9.3125C2.4375 10.1875 2 11.25 2 12.5C2 13.75 2.4375 14.8125 3.3125 15.6875C4.1875 16.5625 5.25 17 6.5 17Z" fill="#5B0888"/>
</svg>
