<svg width="62" height="68" viewBox="0 0 62 68" fill="none" xmlns="http://www.w3.org/2000/svg">
<path d="M15.8875 16H14.3583L14.9714 17.401L21.1714 31.5676L21.4336 32.1667H22.0875H40.1709H40.7881L41.0648 31.615L48.1689 17.4483L48.8952 16H47.275H15.8875ZM12.5157 11.7308L12.7767 12.3334H13.4334H51.5375C51.862 12.3334 52.1062 12.4101 52.3049 12.5377C52.5089 12.6688 52.7199 12.8893 52.9157 13.2563C53.2809 13.9404 53.2969 14.5827 52.9647 15.2844L43.7993 33.407L43.7978 33.4101C43.3945 34.2143 42.8724 34.8043 42.2403 35.2166C41.6055 35.6305 40.9233 35.8334 40.1709 35.8334H20.925H20.3078L20.0311 36.3851L17.1895 42.0518L16.4632 43.5H18.0834H48.0834V47.1667H18.0834C17.2821 47.1667 16.6228 46.9762 16.0696 46.6238C15.5119 46.2685 15.0065 45.7128 14.575 44.8999C13.7306 43.3094 13.7023 41.7954 14.4583 40.2529C14.4589 40.2516 14.4596 40.2503 14.4602 40.2491L17.9436 33.3156L18.1531 32.8986L17.9681 32.4702L8.66808 10.9369L8.40743 10.3334H7.75004H3.58337V6.66669H10.3225L12.5157 11.7308ZM18.0834 61.3334C16.9613 61.3334 16.0079 60.9103 15.1734 59.995C14.3364 59.077 13.9167 57.9861 13.9167 56.6667C13.9167 55.3473 14.3364 54.2564 15.1734 53.3384C16.0079 52.4231 16.9613 52 18.0834 52C19.2054 52 20.1589 52.4231 20.9934 53.3384C21.8304 54.2564 22.25 55.3473 22.25 56.6667C22.25 57.9861 21.8304 59.077 20.9934 59.995C20.1589 60.9103 19.2054 61.3334 18.0834 61.3334ZM43.9167 61.3334C42.7947 61.3334 41.8412 60.9103 41.0067 59.995C40.1697 59.077 39.75 57.9861 39.75 56.6667C39.75 55.3473 40.1697 54.2564 41.0067 53.3384C41.8412 52.4231 42.7947 52 43.9167 52C45.0387 52 45.9922 52.4231 46.8267 53.3384C47.6637 54.2564 48.0834 55.3473 48.0834 56.6667C48.0834 57.9861 47.6637 59.077 46.8267 59.995C45.9922 60.9103 45.0387 61.3334 43.9167 61.3334Z" fill="#E5CFF7" stroke="#9D76C1" stroke-width="2"/>
</svg>
